<svg width="21" height="24" viewBox="0 2 21 24" fill="none" xmlns="http://www.w3.org/2000/svg">
<g filter="url(#filter0_bddii_183_1320)">
<mask id="mask0_183_1320" style="mask-type:alpha" maskUnits="userSpaceOnUse" x="6" y="5" width="20" height="20">
<rect x="6" y="5" width="20" height="20" fill="#D9D9D9"/>
</mask>
<g mask="url(#mask0_183_1320)">
<path d="M13.7285 19.9785C13.2012 19.9785 12.7569 19.7982 12.3955 19.4375C12.0342 19.0762 11.8535 18.6315 11.8535 18.1035V8.35352C11.8535 7.83952 12.0342 7.39852 12.3955 7.03052C12.7569 6.66252 13.2012 6.47852 13.7285 6.47852H20.9785C21.4925 6.47852 21.9335 6.66252 22.3015 7.03052C22.6695 7.39852 22.8535 7.83952 22.8535 8.35352V18.1035C22.8535 18.6315 22.6695 19.0762 22.3015 19.4375C21.9335 19.7982 21.4925 19.9785 20.9785 19.9785H13.7285ZM13.7285 18.1035H20.9785V8.35352H13.7285V18.1035ZM8.31152 17.0205H10.2075V15.2915H8.31152V17.0205ZM8.31152 13.8535H10.2075V12.1245H8.31152V13.8535ZM14.8115 23.5205H16.5415V21.6245H14.8115V23.5205ZM8.31152 20.1875H10.2075V18.4575H8.31152V20.1875ZM10.2075 23.5205V21.6245H8.31152C8.31152 22.1525 8.49586 22.6005 8.86452 22.9685C9.23252 23.3365 9.68019 23.5205 10.2075 23.5205ZM11.6455 23.5205H13.3745V21.6245H11.6455V23.5205ZM17.9785 23.5205C18.4925 23.5205 18.9335 23.3365 19.3015 22.9685C19.6695 22.6005 19.8535 22.1525 19.8535 21.6245H17.9785V23.5205ZM8.31152 10.6875H10.2075V8.81152C9.68019 8.81152 9.23252 8.99585 8.86452 9.36452C8.49586 9.73252 8.31152 10.1735 8.31152 10.6875Z" fill="white"/>
</g>
</g>
<defs>
<filter id="filter0_bddii_183_1320" x="-41.6885" y="-43.5215" width="114.542" height="117.042" filterUnits="userSpaceOnUse" color-interpolation-filters="sRGB">
<feFlood flood-opacity="0" result="BackgroundImageFix"/>
<feGaussianBlur in="BackgroundImage" stdDeviation="25"/>
<feComposite in2="SourceAlpha" operator="in" result="effect1_backgroundBlur_183_1320"/>
<feColorMatrix in="SourceAlpha" type="matrix" values="0 0 0 0 0 0 0 0 0 0 0 0 0 0 0 0 0 0 127 0" result="hardAlpha"/>
<feOffset dy="2"/>
<feGaussianBlur stdDeviation="4"/>
<feComposite in2="hardAlpha" operator="out"/>
<feColorMatrix type="matrix" values="0 0 0 0 0 0 0 0 0 0 0 0 0 0 0 0 0 0 0.1 0"/>
<feBlend mode="normal" in2="effect1_backgroundBlur_183_1320" result="effect2_dropShadow_183_1320"/>
<feColorMatrix in="SourceAlpha" type="matrix" values="0 0 0 0 0 0 0 0 0 0 0 0 0 0 0 0 0 0 127 0" result="hardAlpha"/>
<feOffset dy="1"/>
<feGaussianBlur stdDeviation="2"/>
<feComposite in2="hardAlpha" operator="out"/>
<feColorMatrix type="matrix" values="0 0 0 0 0 0 0 0 0 0 0 0 0 0 0 0 0 0 0.25 0"/>
<feBlend mode="normal" in2="effect2_dropShadow_183_1320" result="effect3_dropShadow_183_1320"/>
<feBlend mode="normal" in="SourceGraphic" in2="effect3_dropShadow_183_1320" result="shape"/>
<feColorMatrix in="SourceAlpha" type="matrix" values="0 0 0 0 0 0 0 0 0 0 0 0 0 0 0 0 0 0 127 0" result="hardAlpha"/>
<feOffset dy="4"/>
<feGaussianBlur stdDeviation="7.5"/>
<feComposite in2="hardAlpha" operator="arithmetic" k2="-1" k3="1"/>
<feColorMatrix type="matrix" values="0 0 0 0 1 0 0 0 0 1 0 0 0 0 1 0 0 0 0.25 0"/>
<feBlend mode="normal" in2="shape" result="effect4_innerShadow_183_1320"/>
<feColorMatrix in="SourceAlpha" type="matrix" values="0 0 0 0 0 0 0 0 0 0 0 0 0 0 0 0 0 0 127 0" result="hardAlpha"/>
<feOffset dy="1"/>
<feGaussianBlur stdDeviation="2"/>
<feComposite in2="hardAlpha" operator="arithmetic" k2="-1" k3="1"/>
<feColorMatrix type="matrix" values="0 0 0 0 1 0 0 0 0 1 0 0 0 0 1 0 0 0 0.25 0"/>
<feBlend mode="normal" in2="effect4_innerShadow_183_1320" result="effect5_innerShadow_183_1320"/>
</filter>
</defs>
</svg>
