<svg width="25" height="25" viewBox="0 0 25 25" fill="none" xmlns="http://www.w3.org/2000/svg">
<mask id="mask0_149_1105" style="mask-type:alpha" maskUnits="userSpaceOnUse" x="0" y="0" width="25" height="25">
<rect x="0.211914" y="0.435547" width="24" height="24" fill="#D9D9D9"/>
</mask>
<g mask="url(#mask0_149_1105)">
<path d="M11.2119 13.4355H13.2119V7.43555H11.2119V13.4355ZM12.2119 17.4355C12.4952 17.4355 12.7329 17.3395 12.9249 17.1475C13.1162 16.9562 13.2119 16.7189 13.2119 16.4355C13.2119 16.1522 13.1162 15.9145 12.9249 15.7225C12.7329 15.5312 12.4952 15.4355 12.2119 15.4355C11.9286 15.4355 11.6912 15.5312 11.4999 15.7225C11.3079 15.9145 11.2119 16.1522 11.2119 16.4355C11.2119 16.7189 11.3079 16.9562 11.4999 17.1475C11.6912 17.3395 11.9286 17.4355 12.2119 17.4355ZM12.2119 22.4355C10.8286 22.4355 9.52858 22.1729 8.31191 21.6475C7.09525 21.1229 6.03691 20.4105 5.13691 19.5105C4.23691 18.6105 3.52458 17.5522 2.99991 16.3355C2.47458 15.1189 2.21191 13.8189 2.21191 12.4355C2.21191 11.0522 2.47458 9.75221 2.99991 8.53555C3.52458 7.31888 4.23691 6.26055 5.13691 5.36055C6.03691 4.46055 7.09525 3.74788 8.31191 3.22255C9.52858 2.69788 10.8286 2.43555 12.2119 2.43555C13.5952 2.43555 14.8952 2.69788 16.1119 3.22255C17.3286 3.74788 18.3869 4.46055 19.2869 5.36055C20.1869 6.26055 20.8992 7.31888 21.4239 8.53555C21.9492 9.75221 22.2119 11.0522 22.2119 12.4355C22.2119 13.8189 21.9492 15.1189 21.4239 16.3355C20.8992 17.5522 20.1869 18.6105 19.2869 19.5105C18.3869 20.4105 17.3286 21.1229 16.1119 21.6475C14.8952 22.1729 13.5952 22.4355 12.2119 22.4355ZM12.2119 20.4355C14.4286 20.4355 16.3162 19.6565 17.8749 18.0985C19.4329 16.5399 20.2119 14.6522 20.2119 12.4355C20.2119 10.2189 19.4329 8.33121 17.8749 6.77255C16.3162 5.21455 14.4286 4.43555 12.2119 4.43555C9.99525 4.43555 8.10791 5.21455 6.54991 6.77255C4.99125 8.33121 4.21191 10.2189 4.21191 12.4355C4.21191 14.6522 4.99125 16.5399 6.54991 18.0985C8.10791 19.6565 9.99525 20.4355 12.2119 20.4355Z" fill="#1C1B1F"/>
</g>
</svg>
