<svg width="25" height="25" viewBox="0 0 25 25" fill="none" xmlns="http://www.w3.org/2000/svg">
<mask id="mask0_150_1129" style="mask-type:alpha" maskUnits="userSpaceOnUse" x="0" y="0" width="25" height="25">
<rect x="0.206055" y="0.484863" width="24" height="24" fill="#D9D9D9"/>
</mask>
<g mask="url(#mask0_150_1129)">
<path d="M19.0561 22.4599C18.9227 22.4599 18.7977 22.4392 18.6811 22.3979C18.5644 22.3559 18.4561 22.2849 18.3561 22.1849L13.0561 16.8849V15.8849L15.5811 13.3599H16.5811L21.8811 18.6599C21.9811 18.7599 22.0521 18.8682 22.0941 18.9849C22.1354 19.1015 22.1561 19.2265 22.1561 19.3599C22.1561 19.4932 22.1354 19.6182 22.0941 19.7349C22.0521 19.8515 21.9811 19.9599 21.8811 20.0599L19.7561 22.1849C19.6561 22.2849 19.5477 22.3559 19.4311 22.3979C19.3144 22.4392 19.1894 22.4599 19.0561 22.4599ZM19.0561 20.0849L19.7811 19.3599L15.5311 15.1099L14.8061 15.8349L19.0561 20.0849ZM5.33105 22.4849C5.19772 22.4849 5.06872 22.4599 4.94405 22.4099C4.81872 22.3599 4.70605 22.2849 4.60605 22.1849L2.50605 20.0849C2.40605 19.9849 2.33105 19.8722 2.28105 19.7469C2.23105 19.6222 2.20605 19.4932 2.20605 19.3599C2.20605 19.2265 2.23105 19.1015 2.28105 18.9849C2.33105 18.8682 2.40605 18.7599 2.50605 18.6599L7.80605 13.3599H9.93106L10.7811 12.5099L6.65605 8.38486H5.23105L2.20605 5.35986L5.03105 2.53486L8.05605 5.55986V6.98486L12.1811 11.1099L15.0811 8.20986L14.0061 7.13486L15.4061 5.73486H12.5811L11.8811 5.03486L15.4311 1.48486L16.1311 2.18486V5.00986L17.5311 3.60986L21.0811 7.15986C21.3811 7.4432 21.6021 7.7682 21.7441 8.13486C21.8854 8.50153 21.9561 8.87653 21.9561 9.25986C21.9561 9.6432 21.8854 10.0182 21.7441 10.3849C21.6021 10.7515 21.3811 11.0849 21.0811 11.3849L18.9561 9.25986L17.5561 10.6599L16.5061 9.60986L11.3311 14.7849V16.8849L6.03105 22.1849C5.93105 22.2849 5.82272 22.3599 5.70605 22.4099C5.58939 22.4599 5.46439 22.4849 5.33105 22.4849ZM5.33105 20.0849L9.58105 15.8349L8.85605 15.1099L4.60605 19.3599L5.33105 20.0849Z" fill="#1C1B1F"/>
</g>
</svg>
