<svg width="24" height="24" viewBox="0 0 24 24" fill="none" xmlns="http://www.w3.org/2000/svg">
<mask id="mask0_149_1117" style="mask-type:alpha" maskUnits="userSpaceOnUse" x="0" y="0" width="24" height="24">
<rect width="24" height="24" fill="#D9D9D9"/>
</mask>
<g mask="url(#mask0_149_1117)">
<path d="M12 15C11.45 15 10.9793 14.804 10.588 14.412C10.196 14.0207 10 13.55 10 13C10 12.45 10.196 11.979 10.588 11.587C10.9793 11.1957 11.45 11 12 11C12.55 11 13.021 11.1957 13.413 11.587C13.8043 11.979 14 12.45 14 13C14 13.55 13.8043 14.0207 13.413 14.412C13.021 14.804 12.55 15 12 15ZM7.925 17.425C7.34167 16.875 6.875 16.221 6.525 15.463C6.175 14.7043 6 13.8833 6 13C6 11.3333 6.58333 9.91667 7.75 8.75C8.91667 7.58333 10.3333 7 12 7C13.6667 7 15.0833 7.58333 16.25 8.75C17.4167 9.91667 18 11.3333 18 13C18 13.8833 17.825 14.7083 17.475 15.475C17.125 16.2417 16.6583 16.8917 16.075 17.425L14.65 16C15.0667 15.6167 15.3957 15.1667 15.637 14.65C15.879 14.1333 16 13.5833 16 13C16 11.9 15.6083 10.9583 14.825 10.175C14.0417 9.39167 13.1 9 12 9C10.9 9 9.95833 9.39167 9.175 10.175C8.39167 10.9583 8 11.9 8 13C8 13.6 8.121 14.154 8.363 14.662C8.60433 15.1707 8.93333 15.6167 9.35 16L7.925 17.425ZM5.1 20.25C4.15 19.3333 3.396 18.254 2.838 17.012C2.27933 15.7707 2 14.4333 2 13C2 11.6167 2.26267 10.3167 2.788 9.1C3.31267 7.88333 4.025 6.825 4.925 5.925C5.825 5.025 6.88333 4.31233 8.1 3.787C9.31667 3.26233 10.6167 3 12 3C13.8667 3 15.5583 3.454 17.075 4.362C18.5917 5.27067 19.7917 6.48333 20.675 8H18.25C17.5 7.08333 16.5873 6.354 15.512 5.812C14.4373 5.27067 13.2667 5 12 5C9.76667 5 7.875 5.775 6.325 7.325C4.775 8.875 4 10.7667 4 13C4 14.15 4.225 15.225 4.675 16.225C5.125 17.225 5.74167 18.0917 6.525 18.825L5.1 20.25ZM20 16V10H22V16H20ZM21 20C20.7167 20 20.4793 19.904 20.288 19.712C20.096 19.5207 20 19.2833 20 19C20 18.7167 20.096 18.4793 20.288 18.288C20.4793 18.096 20.7167 18 21 18C21.2833 18 21.5207 18.096 21.712 18.288C21.904 18.4793 22 18.7167 22 19C22 19.2833 21.904 19.5207 21.712 19.712C21.5207 19.904 21.2833 20 21 20Z" fill="#1C1B1F"/>
</g>
</svg>
